<svg width="39" height="27" viewBox="0 0 39 27" fill="none" xmlns="http://www.w3.org/2000/svg">
<path fill-rule="evenodd" clip-rule="evenodd" d="M25.7431 3.52414C24.4644 3.52414 23.2382 4.0403 22.334 4.95908C21.4299 5.87786 20.922 7.12399 20.922 8.42334C20.922 9.72269 21.4299 10.9688 22.334 11.8876C23.2382 12.8064 24.4644 13.3225 25.7431 13.3225C27.0217 13.3225 28.248 12.8064 29.1522 11.8876C30.0563 10.9688 30.5642 9.72269 30.5642 8.42334C30.5642 7.12399 30.0563 5.87786 29.1522 4.95908C28.248 4.0403 27.0217 3.52414 25.7431 3.52414ZM17.7079 8.42334C17.7079 7.09232 18.0281 5.78148 18.6406 4.60497C19.2531 3.42845 20.1394 2.42193 21.2222 1.67306C22.305 0.924184 23.5516 0.455658 24.8534 0.308277C26.1551 0.160896 27.4726 0.339129 28.6911 0.827458C29.9096 1.31579 30.9921 2.0994 31.8444 3.11007C32.6967 4.12074 33.293 5.32782 33.5813 6.6262C33.8696 7.92458 33.8411 9.2749 33.4985 10.5596C33.1558 11.8442 32.5093 13.0243 31.6152 13.997C34.3415 14.8983 36.6985 16.6894 38.3198 19.0922C38.546 19.4501 38.6258 19.8836 38.5423 20.3004C38.4588 20.7171 38.2185 21.0844 37.8727 21.3239C37.5268 21.5635 37.1026 21.6565 36.6903 21.5831C36.278 21.5097 35.9102 21.2758 35.665 20.931C34.0965 18.5925 31.236 16.5887 27.3501 16.5887C21.1887 16.5887 17.7079 21.6087 17.7079 24.754C17.7079 25.1871 17.5385 25.6025 17.2372 25.9088C16.9358 26.215 16.527 26.3871 16.1008 26.3871C15.6746 26.3871 15.2658 26.215 14.9645 25.9088C14.6631 25.6025 14.4938 25.1871 14.4938 24.754C14.4938 23.6239 14.7477 22.4187 15.233 21.2315C15.1068 21.1484 14.9927 21.0478 14.8939 20.9326C13.5745 19.4074 11.5272 18.2218 8.86911 18.2218C6.21105 18.2218 4.16368 19.4074 2.84429 20.9326C2.5586 21.241 2.1662 21.4245 1.74988 21.4445C1.33356 21.4644 0.925901 21.3193 0.612928 21.0396C0.299954 20.7599 0.10615 20.3676 0.0724153 19.9454C0.0386801 19.5233 0.167653 19.1043 0.432115 18.777C1.3811 17.6795 2.53185 16.7808 3.81977 16.1314C2.79079 15.1109 2.08451 13.8019 1.79114 12.3716C1.49778 10.9412 1.63064 9.45451 2.17276 8.10127C2.71489 6.74803 3.64166 5.58972 4.83471 4.77429C6.02776 3.95886 7.43292 3.52334 8.87071 3.52334C10.3085 3.52334 11.7137 3.95886 12.9067 4.77429C14.0998 5.58972 15.0265 6.74803 15.5687 8.10127C16.1108 9.45451 16.2437 10.9412 15.9503 12.3716C15.6569 13.8019 14.9506 15.1109 13.9217 16.1314C15.0366 16.6937 16.0499 17.4435 16.9188 18.3491C18.0103 16.9535 19.3681 15.7964 20.9107 14.9474C19.9152 14.1872 19.1075 13.2019 18.5516 12.0695C17.9957 10.9371 17.7068 9.6888 17.7079 8.42334ZM4.85149 10.8729C4.85149 9.79015 5.27478 8.75171 6.02822 7.98606C6.78167 7.22041 7.80357 6.79027 8.86911 6.79027C9.93465 6.79027 10.9565 7.22041 11.71 7.98606C12.4634 8.75171 12.8867 9.79015 12.8867 10.8729C12.8867 11.9557 12.4634 12.9942 11.71 13.7598C10.9565 14.5255 9.93465 14.9556 8.86911 14.9556C7.80357 14.9556 6.78167 14.5255 6.02822 13.7598C5.27478 12.9942 4.85149 11.9557 4.85149 10.8729Z" fill="#06766E"/>
</svg>
