<svg width="26" height="37" viewBox="0 0 26 37" fill="none" xmlns="http://www.w3.org/2000/svg">
<path fill-rule="evenodd" clip-rule="evenodd" d="M5.6989 6.3162C9.41796 2.324 15.6884 2.08514 19.6966 5.78642C20.6465 6.65906 21.4144 7.71282 21.9556 8.88644C22.4968 10.06 22.8005 11.3301 22.8491 12.6227C22.8977 13.9154 22.6901 15.2048 22.2385 16.4161C21.787 17.6273 21.1003 18.7362 20.2186 19.6784C19.6413 20.2989 18.9872 20.8425 18.2725 21.296C18.0495 21.4372 17.8677 21.6353 17.7455 21.8701C17.6234 22.1049 17.5652 22.368 17.577 22.6327L17.6746 24.8354L13.4028 24.9974L9.59305 25.1419L9.15849 25.1583L9.0764 22.9455C9.06678 22.6824 8.98851 22.4265 8.84942 22.2035C8.71033 21.9805 8.51533 21.7982 8.28399 21.6748C7.53693 21.2772 6.84363 20.785 6.22101 20.2103C5.27076 19.3376 4.5026 18.2837 3.9612 17.1099C3.4198 15.9361 3.11598 14.6658 3.06739 13.3729C3.01881 12.08 3.22644 10.7904 3.6782 9.57889C4.12997 8.36743 4.81685 7.25836 5.6989 6.3162ZM6.19676 25.6083C6.26556 26.087 6.44959 26.5416 6.73284 26.9326C7.0161 27.3236 7.39003 27.6391 7.82214 27.8519L8.17846 31.2064L8.22903 31.7651C8.30755 32.6437 8.59601 33.4902 9.06986 34.2326C9.54371 34.9751 10.1889 35.5915 10.9507 36.0295C11.7124 36.4674 12.5681 36.714 13.4449 36.7481C14.3217 36.7823 15.1938 36.603 15.9869 36.2256C16.9137 35.7854 17.6991 35.0928 18.2539 34.2264C18.8088 33.36 19.1108 32.3546 19.1257 31.3242L19.1476 29.685L19.2124 27.4188C19.6266 27.1739 19.9752 26.8312 20.228 26.4203C20.4807 26.0094 20.6299 25.5427 20.6628 25.0608C20.6669 25.0046 20.668 24.9482 20.6659 24.8918L20.5968 23.3336C21.2362 22.8655 21.8393 22.3309 22.3977 21.7299C23.549 20.4984 24.4455 19.0493 25.0352 17.4666C25.6248 15.8839 25.8958 14.1992 25.8325 12.5103C25.7691 10.8215 25.3726 9.16206 24.6661 7.62845C23.9595 6.09484 22.9569 4.71759 21.7166 3.57665C16.5015 -1.23728 8.35884 -0.928479 3.51986 4.26462C2.36809 5.49626 1.47125 6.9457 0.881435 8.52872C0.291617 10.1118 0.0205768 11.7968 0.0840549 13.4861C0.147532 15.1753 0.544264 16.8351 1.25121 18.3689C1.95815 19.9028 2.96121 21.2801 4.20213 22.421C4.79607 22.9692 5.43973 23.4602 6.12471 23.8877L6.18344 25.4506C6.18544 25.5037 6.19025 25.5567 6.19785 25.6093L6.19676 25.6083ZM12.7643 33.584C12.1561 33.347 11.6663 32.8772 11.4023 32.2776L16.1326 31.4441C16.0634 32.3312 15.5219 33.1258 14.7104 33.5112C14.4075 33.6551 14.0788 33.7356 13.7441 33.748C13.4094 33.7603 13.0757 33.7041 12.7632 33.583L12.7643 33.584ZM10.7965 28.0459L10.9793 29.9332L16.2851 28.8688L16.339 27.016L10.7965 28.0459Z" fill="#06766E"/>
</svg>
