<svg width="31" height="31" viewBox="0 0 31 31" fill="none" xmlns="http://www.w3.org/2000/svg">
<path fill-rule="evenodd" clip-rule="evenodd" d="M0.880615 2.05375C0.880615 1.61172 1.05529 1.1878 1.36622 0.87524C1.67715 0.56268 2.09886 0.387085 2.53858 0.387085H29.0659C29.5057 0.387085 29.9274 0.56268 30.2383 0.87524C30.5492 1.1878 30.7239 1.61172 30.7239 2.05375V28.7204C30.7239 29.1624 30.5492 29.5864 30.2383 29.8989C29.9274 30.2115 29.5057 30.3871 29.0659 30.3871H2.53858C2.09886 30.3871 1.67715 30.2115 1.36622 29.8989C1.05529 29.5864 0.880615 29.1624 0.880615 28.7204V2.05375ZM4.19654 3.72042V13.7204H14.1443V3.72042H4.19654ZM17.4602 3.72042V13.7204H27.408V3.72042H17.4602ZM27.408 17.0538H17.4602V27.0538H27.408V17.0538ZM14.1443 27.0538V17.0538H4.19654V27.0538H14.1443Z" fill="#06766E"/>
</svg>
