<svg width="144" height="130" viewBox="0 0 144 130" fill="none" xmlns="http://www.w3.org/2000/svg">
<ellipse cx="2.33784" cy="1.89488" rx="2.33784" ry="1.89488" fill="#FFD000"/>
<ellipse cx="58.4459" cy="1.89488" rx="2.33784" ry="1.89488" fill="#FFD000"/>
<ellipse cx="114.554" cy="1.89488" rx="2.33784" ry="1.89488" fill="#FFD000"/>
<ellipse cx="30.3919" cy="1.89488" rx="2.33784" ry="1.89488" fill="#FFD000"/>
<ellipse cx="86.5" cy="1.89488" rx="2.33784" ry="1.89488" fill="#FFD000"/>
<ellipse cx="142.608" cy="1.89488" rx="2.33784" ry="1.89488" fill="#FFD000"/>
<ellipse cx="2.33784" cy="50.2983" rx="2.33784" ry="1.89488" fill="#FFD000"/>
<ellipse cx="58.4459" cy="50.2983" rx="2.33784" ry="1.89488" fill="#FFD000"/>
<ellipse cx="114.554" cy="50.2983" rx="2.33784" ry="1.89488" fill="#FFD000"/>
<ellipse cx="30.3919" cy="50.2983" rx="2.33784" ry="1.89488" fill="#FFD000"/>
<ellipse cx="86.5" cy="50.2983" rx="2.33784" ry="1.89488" fill="#FFD000"/>
<ellipse cx="142.608" cy="50.2983" rx="2.33784" ry="1.89488" fill="#FFD000"/>
<ellipse cx="2.33784" cy="98.7017" rx="2.33784" ry="1.89488" fill="#FFD000"/>
<ellipse cx="58.4459" cy="98.7017" rx="2.33784" ry="1.89488" fill="#FFD000"/>
<ellipse cx="114.554" cy="98.7017" rx="2.33784" ry="1.89488" fill="#FFD000"/>
<ellipse cx="30.3919" cy="98.7017" rx="2.33784" ry="1.89488" fill="#FFD000"/>
<ellipse cx="86.5" cy="98.7017" rx="2.33784" ry="1.89488" fill="#FFD000"/>
<ellipse cx="142.608" cy="98.7017" rx="2.33784" ry="1.89488" fill="#FFD000"/>
<ellipse cx="2.33784" cy="26.0966" rx="2.33784" ry="1.89488" fill="#FFD000"/>
<ellipse cx="58.4459" cy="26.0966" rx="2.33784" ry="1.89488" fill="#FFD000"/>
<ellipse cx="114.554" cy="26.0966" rx="2.33784" ry="1.89488" fill="#FFD000"/>
<ellipse cx="30.3919" cy="26.0966" rx="2.33784" ry="1.89488" fill="#FFD000"/>
<ellipse cx="86.5" cy="26.0966" rx="2.33784" ry="1.89488" fill="#FFD000"/>
<ellipse cx="142.608" cy="26.0966" rx="2.33784" ry="1.89488" fill="#FFD000"/>
<ellipse cx="2.33784" cy="74.5" rx="2.33784" ry="1.89488" fill="#FFD000"/>
<ellipse cx="58.4459" cy="74.5" rx="2.33784" ry="1.89488" fill="#FFD000"/>
<ellipse cx="114.554" cy="74.5" rx="2.33784" ry="1.89488" fill="#FFD000"/>
<ellipse cx="30.3919" cy="74.5" rx="2.33784" ry="1.89488" fill="#FFD000"/>
<ellipse cx="86.5" cy="74.5" rx="2.33784" ry="1.89488" fill="#FFD000"/>
<ellipse cx="142.608" cy="74.5" rx="2.33784" ry="1.89488" fill="#FFD000"/>
<ellipse cx="2.33784" cy="122.903" rx="2.33784" ry="1.89488" fill="#FFD000"/>
<ellipse cx="58.4459" cy="122.903" rx="2.33784" ry="1.89488" fill="#FFD000"/>
<ellipse cx="114.554" cy="122.903" rx="2.33784" ry="1.89488" fill="#FFD000"/>
<ellipse cx="30.3919" cy="122.903" rx="2.33784" ry="1.89488" fill="#FFD000"/>
<ellipse cx="86.5" cy="122.903" rx="2.33784" ry="1.89488" fill="#FFD000"/>
<ellipse cx="142.608" cy="122.903" rx="2.33784" ry="1.89488" fill="#FFD000"/>
</svg>
