<svg width="158" height="158" viewBox="0 0 158 158" fill="none" xmlns="http://www.w3.org/2000/svg">
<circle cx="2.13514" cy="2.13514" r="2.13514" fill="#4ECDC4"/>
<circle cx="53.3784" cy="2.13514" r="2.13514" fill="#4ECDC4"/>
<circle cx="104.622" cy="2.13514" r="2.13514" fill="#4ECDC4"/>
<circle cx="27.7568" cy="2.13514" r="2.13514" fill="#4ECDC4"/>
<circle cx="79" cy="2.13514" r="2.13514" fill="#4ECDC4"/>
<circle cx="130.243" cy="2.13514" r="2.13514" fill="#4ECDC4"/>
<circle cx="155.865" cy="2.13514" r="2.13514" fill="#4ECDC4"/>
<circle cx="2.13514" cy="53.3784" r="2.13514" fill="#4ECDC4"/>
<circle cx="53.3784" cy="53.3784" r="2.13514" fill="#4ECDC4"/>
<circle cx="104.622" cy="53.3784" r="2.13514" fill="#4ECDC4"/>
<circle cx="27.7568" cy="53.3784" r="2.13514" fill="#4ECDC4"/>
<circle cx="79" cy="53.3784" r="2.13514" fill="#4ECDC4"/>
<circle cx="130.243" cy="53.3784" r="2.13514" fill="#4ECDC4"/>
<circle cx="155.865" cy="53.3784" r="2.13514" fill="#4ECDC4"/>
<circle cx="2.13514" cy="104.622" r="2.13514" fill="#4ECDC4"/>
<circle cx="53.3784" cy="104.622" r="2.13514" fill="#4ECDC4"/>
<circle cx="104.622" cy="104.622" r="2.13514" fill="#4ECDC4"/>
<circle cx="27.7568" cy="104.622" r="2.13514" fill="#4ECDC4"/>
<circle cx="79" cy="104.622" r="2.13514" fill="#4ECDC4"/>
<circle cx="130.243" cy="104.622" r="2.13514" fill="#4ECDC4"/>
<circle cx="155.865" cy="104.622" r="2.13514" fill="#4ECDC4"/>
<circle cx="2.13514" cy="27.7568" r="2.13514" fill="#4ECDC4"/>
<circle cx="53.3784" cy="27.7568" r="2.13514" fill="#4ECDC4"/>
<circle cx="104.622" cy="27.7568" r="2.13514" fill="#4ECDC4"/>
<circle cx="27.7568" cy="27.7568" r="2.13514" fill="#4ECDC4"/>
<circle cx="79" cy="27.7568" r="2.13514" fill="#4ECDC4"/>
<circle cx="130.243" cy="27.7568" r="2.13514" fill="#4ECDC4"/>
<circle cx="155.865" cy="27.7568" r="2.13514" fill="#4ECDC4"/>
<circle cx="2.13514" cy="79" r="2.13514" fill="#4ECDC4"/>
<circle cx="53.3784" cy="79" r="2.13514" fill="#4ECDC4"/>
<circle cx="104.622" cy="79" r="2.13514" fill="#4ECDC4"/>
<circle cx="27.7568" cy="79" r="2.13514" fill="#4ECDC4"/>
<circle cx="79" cy="79" r="2.13514" fill="#4ECDC4"/>
<circle cx="130.243" cy="79" r="2.13514" fill="#4ECDC4"/>
<circle cx="155.865" cy="79" r="2.13514" fill="#4ECDC4"/>
<circle cx="2.13514" cy="130.243" r="2.13514" fill="#4ECDC4"/>
<circle cx="2.13514" cy="155.865" r="2.13514" fill="#4ECDC4"/>
<circle cx="53.3784" cy="130.243" r="2.13514" fill="#4ECDC4"/>
<circle cx="53.3784" cy="155.865" r="2.13514" fill="#4ECDC4"/>
<circle cx="104.622" cy="130.243" r="2.13514" fill="#4ECDC4"/>
<circle cx="104.622" cy="155.865" r="2.13514" fill="#4ECDC4"/>
<circle cx="27.7568" cy="130.243" r="2.13514" fill="#4ECDC4"/>
<circle cx="27.7568" cy="155.865" r="2.13514" fill="#4ECDC4"/>
<circle cx="79" cy="130.243" r="2.13514" fill="#4ECDC4"/>
<circle cx="79" cy="155.865" r="2.13514" fill="#4ECDC4"/>
<circle cx="130.243" cy="130.243" r="2.13514" fill="#4ECDC4"/>
<circle cx="155.865" cy="130.243" r="2.13514" fill="#4ECDC4"/>
<circle cx="130.243" cy="155.865" r="2.13514" fill="#4ECDC4"/>
<circle cx="155.865" cy="155.865" r="2.13514" fill="#4ECDC4"/>
</svg>
