<svg width="111" height="114" viewBox="0 0 111 114" fill="none" xmlns="http://www.w3.org/2000/svg">
<path d="M37.6542 17.2905L60.696 20.6623C62.8435 20.9765 64.6538 22.426 65.4302 24.4527L73.4027 45.2641C74.1791 47.2909 73.8005 49.5788 72.4126 51.2474L57.5209 69.1509C56.1842 70.7579 54.1075 71.5534 52.0393 71.2508L28.9974 67.879C26.8499 67.5647 25.0396 66.1153 24.2632 64.0886L16.2907 43.2771C15.5143 41.2504 15.8929 38.9624 17.2808 37.2938L32.1726 19.3904C33.5092 17.7834 35.5859 16.9878 37.6542 17.2905Z" stroke="#FFD000" stroke-width="8"/>
<path d="M59.2177 38.8685L82.2596 42.2403C85.6598 42.7379 88.5262 45.0328 89.7554 48.2418L97.7279 69.0532C98.9572 72.2622 98.3577 75.8848 96.1603 78.5267L81.2685 96.4302C79.1521 98.9746 75.864 100.234 72.5893 99.755L49.5474 96.3832C46.1473 95.8857 43.2809 93.5907 42.0516 90.3818L34.0791 69.5703C32.8499 66.3613 33.4493 62.7387 35.6468 60.0968L50.5385 42.1933C52.655 39.6489 55.943 38.3893 59.2177 38.8685Z" stroke="#FFD000"/>
</svg>
