<svg width="243" height="201" viewBox="0 0 243 201" fill="none" xmlns="http://www.w3.org/2000/svg">
<path d="M189.144 143.907C160.223 167.352 125.205 179.249 94.5776 200.936C84.2849 168.642 62.235 153.283 37.8966 131.585C5.32314 102.545 -26.2153 22.9181 39.1098 10.734C56.5236 7.49001 73.9962 16.5254 87.5194 27.9664C100.2 38.6966 110.863 51.794 118.805 66.3838C126.501 30.7486 160.202 2.46001 196.638 1.04861C203.079 0.799545 209.701 1.34024 215.595 3.97876C221.043 6.42288 225.6 10.5558 229.327 15.2274C244.861 34.7074 245.692 63.1601 235.97 86.0927C226.228 109.074 209.053 127.991 189.144 143.907Z" fill="black"/>
</svg>
