<svg width="45" height="36" viewBox="0 0 45 36" fill="none" xmlns="http://www.w3.org/2000/svg">
<path fill-rule="evenodd" clip-rule="evenodd" d="M1.224 2.628C1.8 1.81773 2.56103 1.1566 3.44387 0.69953C4.32671 0.242458 5.30586 0.00264122 6.3 0H38.7C40.806 0 42.6442 1.0575 43.776 2.628C44.5477 3.7035 45 5.02875 45 6.45075V29.5492C45 33.0345 42.255 36 38.7 36H6.3C2.745 36 0 33.0345 0 29.5492V6.45075C0 5.02875 0.45 3.7035 1.224 2.62575V2.628ZM6.59925 4.5L20.835 20.1712C21.0459 20.4033 21.3029 20.5886 21.5897 20.7155C21.8764 20.8424 22.1865 20.9079 22.5 20.9079C22.8135 20.9079 23.1236 20.8424 23.4103 20.7155C23.6971 20.5886 23.9541 20.4033 24.165 20.1712L38.4007 4.5H6.59925ZM40.5 8.883L27.495 23.1975C26.8623 23.8935 26.0912 24.4497 25.231 24.8303C24.3708 25.2108 23.4406 25.4074 22.5 25.4074C21.5594 25.4074 20.6292 25.2108 19.769 24.8303C18.9088 24.4497 18.1377 23.8935 17.505 23.1975L4.5 8.883V29.5492C4.5 30.7057 5.382 31.5 6.3 31.5H38.7C39.618 31.5 40.5 30.7057 40.5 29.5492V8.883Z" fill="black" fill-opacity="0.63"/>
</svg>
