<svg width="35" height="29" viewBox="0 0 35 29" fill="none" xmlns="http://www.w3.org/2000/svg">
<path fill-rule="evenodd" clip-rule="evenodd" d="M4.01854 4.98836V24.8681C5.53783 24.1958 7.70036 23.4947 10.1447 23.4947C12.5799 23.4947 14.7393 24.1897 16.2709 24.8696V4.98685C15.8424 4.7435 15.4012 4.52259 14.9491 4.32505C13.6826 3.77657 11.9887 3.24773 10.1447 3.24773C7.48595 3.24773 5.15188 4.34318 4.01854 4.98836ZM19.3339 4.98836V24.9422C20.8624 24.303 23.025 23.6458 25.4601 23.6458C27.9044 23.6458 30.07 24.3076 31.5863 24.9422V4.98836C30.4529 4.34318 28.1189 3.24773 25.4601 3.24773C23.6161 3.24773 21.9192 3.77506 20.6557 4.32656C20.2036 4.5241 19.7624 4.74501 19.3339 4.98836ZM17.8024 2.37137C17.3889 2.13566 16.8421 1.85009 16.1897 1.56451C14.6888 0.905734 12.5553 0.2258 10.1447 0.2258C6.60991 0.2258 3.65403 1.69144 2.3706 2.43785C1.93496 2.69497 1.57513 3.06009 1.32686 3.49694C1.0786 3.93378 0.950552 4.42712 0.955458 4.92792V25.9485C0.955458 26.8913 1.52213 27.606 2.17303 27.9656C2.81934 28.3207 3.68926 28.4159 4.48106 28.0049C5.74152 27.3522 7.82135 26.5166 10.1447 26.5166C13.0623 26.5166 15.5847 27.8357 16.5542 28.4234C16.9243 28.6468 17.3485 28.7678 17.7823 28.7739C18.2161 28.7801 18.6436 28.671 19.02 28.4582C19.9956 27.9067 22.5257 26.6677 25.4601 26.6677C27.8202 26.6677 29.9276 27.4685 31.1835 28.0835C32.6415 28.7936 34.6494 27.8478 34.6494 26.0014V4.92792C34.6494 3.96846 34.1776 2.98633 33.2342 2.43785C31.9508 1.69295 28.9949 0.2258 25.4601 0.2258C23.0495 0.2258 20.9176 0.907245 19.4151 1.56451C18.7627 1.85009 18.2159 2.13566 17.8024 2.37137Z" fill="#06766E"/>
</svg>
