<svg width="39" height="46" viewBox="0 0 39 46" fill="none" xmlns="http://www.w3.org/2000/svg">
<path fill-rule="evenodd" clip-rule="evenodd" d="M12.1771 7.21208C13.4661 6.30251 14.9256 5.66543 16.467 5.33952C16.4187 4.73446 16.4985 4.12594 16.701 3.55396C16.9036 2.98199 17.2245 2.4595 17.6424 2.02086C18.0604 1.58221 18.5661 1.23734 19.1262 1.0089C19.6863 0.780468 20.2882 0.673644 20.8923 0.695453C21.4964 0.717263 22.089 0.867213 22.6312 1.13545C23.1734 1.40368 23.6529 1.78412 24.0382 2.25177C24.4234 2.71941 24.7058 3.26367 24.8666 3.84876C25.0274 4.43386 25.063 5.04655 24.9712 5.64655C26.4859 6.08252 27.8964 6.82323 29.117 7.82366C31.1479 9.51119 32.2793 11.7151 32.9164 13.8968C33.5499 16.0612 33.7262 18.2994 33.7826 20.1804C33.8065 20.9453 33.8121 21.6794 33.8144 22.3274L33.818 22.7644C33.8221 23.5394 33.8354 24.121 33.8778 24.5486C34.1818 27.7062 34.6224 29.9282 35.2994 31.7175C35.9607 33.4654 36.8781 34.8867 38.2665 36.3853C38.5549 36.6967 38.7448 37.087 38.8123 37.5069C38.8798 37.9268 38.8219 38.3574 38.6457 38.7442C38.4696 39.1311 38.1832 39.4568 37.8227 39.6803C37.4623 39.9038 37.044 40.015 36.6207 39.9998L23.204 39.5154C23.5558 40.1825 23.7265 40.9309 23.699 41.6853C23.6715 42.4398 23.4468 43.1737 23.0474 43.8135C22.648 44.4532 22.0881 44.9761 21.4238 45.3298C20.7594 45.6835 20.0142 45.8554 19.2629 45.8283C18.5116 45.8011 17.7807 45.5759 17.1436 45.1753C16.5065 44.7746 15.9857 44.2127 15.6335 43.5458C15.2813 42.8789 15.1101 42.1307 15.1371 41.3762C15.164 40.6217 15.3883 39.8876 15.7872 39.2476L2.37274 38.7633C1.94946 38.748 1.54026 38.6069 1.19687 38.358C0.853479 38.1091 0.591316 37.7635 0.443522 37.365C0.295729 36.9664 0.268942 36.5328 0.366546 36.1189C0.464151 35.705 0.681766 35.3294 0.991881 35.0396C2.48688 33.6429 3.50405 32.3022 4.28732 30.6129C5.08705 28.8834 5.68674 26.699 6.22264 23.5502C6.29588 23.1245 6.351 22.5476 6.41113 21.7728L6.44607 21.3393C6.49503 20.6954 6.55368 19.9614 6.63046 19.2001C6.8245 17.3282 7.16183 15.1085 7.94755 12.9953C8.74245 10.8653 10.0299 8.74661 12.1771 7.21208ZM6.95663 34.6243C7.40361 33.9388 7.80489 33.2129 8.16974 32.4276C9.20398 30.1986 9.88347 27.5844 10.4466 24.2752C10.5551 23.5592 10.6333 22.839 10.681 22.1163L10.7192 21.6528C10.7681 21.0089 10.82 20.3436 10.8925 19.6424C11.0712 17.8969 11.3632 16.1038 11.9612 14.5005C12.5543 12.9141 13.4071 11.6127 14.6612 10.7153C15.902 9.82813 17.7406 9.18641 20.5831 9.28903C23.4257 9.39166 25.2132 10.1643 26.3868 11.1386C27.5729 12.1241 28.3319 13.4838 28.8069 15.1087C29.2877 16.751 29.4495 18.5604 29.502 20.3143C29.5237 21.0188 29.5274 21.6862 29.5299 22.3298L29.5346 22.7949C29.5395 23.5483 29.5503 24.3171 29.6126 24.9672C29.9342 28.289 30.4235 30.9431 31.2941 33.2452C31.6012 34.0591 31.9532 34.8187 32.3515 35.5411L6.95877 34.6244L6.95663 34.6243Z" fill="black" fill-opacity="0.63"/>
</svg>
