<svg width="29" height="29" viewBox="0 0 29 29" fill="none" xmlns="http://www.w3.org/2000/svg">
<path fill-rule="evenodd" clip-rule="evenodd" d="M11.2777 3.22226C9.14121 3.22226 7.09227 4.07098 5.58158 5.58172C4.07088 7.09245 3.22219 9.14145 3.22219 11.278C3.22219 13.4145 4.07088 15.4635 5.58158 16.9742C7.09227 18.4849 9.14121 19.3336 11.2777 19.3336C13.4141 19.3336 15.463 18.4849 16.9737 16.9742C18.4844 15.4635 19.3331 13.4145 19.3331 11.278C19.3331 9.14145 18.4844 7.09245 16.9737 5.58172C15.463 4.07098 13.4141 3.22226 11.2777 3.22226ZM3.55378e-07 11.278C3.39908e-06 9.49162 0.424322 7.73084 1.23801 6.1406C2.05171 4.55036 3.2315 3.17616 4.68023 2.13116C6.12897 1.08615 7.80521 0.400239 9.57092 0.1299C11.3366 -0.14044 13.1413 0.0125277 14.8363 0.576206C16.5313 1.13988 18.0682 2.09815 19.3204 3.37209C20.5726 4.64603 21.5043 6.1992 22.0387 7.90371C22.5732 9.60822 22.6951 11.4153 22.3944 13.1762C22.0938 14.937 21.3792 16.6012 20.3094 18.0318L28.5276 26.2487C28.8299 26.5508 28.9998 26.9606 29 27.388C29.0002 27.8154 28.8305 28.2253 28.5284 28.5276C28.2263 28.8299 27.8165 28.9998 27.3892 29C26.9618 29.0002 26.5518 28.8305 26.2495 28.5284L18.033 20.3116C16.3566 21.5656 14.3644 22.3283 12.2792 22.5142C10.1941 22.7001 8.09829 22.302 6.22657 21.3643C4.35484 20.4267 2.78103 18.9865 1.68134 17.2052C0.581647 15.4238 -0.000525096 13.3715 3.55378e-07 11.278Z" fill="black" fill-opacity="0.49"/>
</svg>
