<svg width="53" height="53" viewBox="0 0 53 53" fill="none" xmlns="http://www.w3.org/2000/svg">
<path fill-rule="evenodd" clip-rule="evenodd" d="M14.7766 18.0424C14.7766 14.9805 15.993 12.044 18.1581 9.87891C20.3232 7.71383 23.2597 6.4975 26.3216 6.4975C29.3835 6.4975 32.32 7.71383 34.4851 9.87891C36.6502 12.044 37.8665 14.9805 37.8665 18.0424C37.8665 21.1043 36.6502 24.0407 34.4851 26.2058C32.32 28.3709 29.3835 29.5872 26.3216 29.5872C23.2597 29.5872 20.3232 28.3709 18.1581 26.2058C15.993 24.0407 14.7766 21.1043 14.7766 18.0424ZM37.3586 31.3854C40.1048 29.1135 42.0832 26.0496 43.0237 22.6117C43.9643 19.1739 43.8211 15.5296 42.6138 12.1761C41.4065 8.82261 39.1938 5.92334 36.2778 3.87391C33.3617 1.82448 29.8843 0.724731 26.3201 0.724731C22.7559 0.724731 19.2785 1.82448 16.3625 3.87391C13.4465 5.92334 11.2338 8.82261 10.0265 12.1761C8.81917 15.5296 8.67601 19.1739 9.61653 22.6117C10.5571 26.0496 12.5354 29.1135 15.2817 31.3854C6.07752 34.6266 0.345459 41.845 0.345459 49.7908C0.345459 50.5562 0.649544 51.2904 1.19082 51.8316C1.73209 52.3729 2.46622 52.677 3.23169 52.677C3.99717 52.677 4.7313 52.3729 5.27257 51.8316C5.81385 51.2904 6.11793 50.5562 6.11793 49.7908C6.11793 43.239 12.915 35.3597 26.3216 35.3597C39.7281 35.3597 46.5252 43.239 46.5252 49.7908C46.5252 50.5562 46.8293 51.2904 47.3706 51.8316C47.9119 52.3729 48.646 52.677 49.4115 52.677C50.1769 52.677 50.9111 52.3729 51.4524 51.8316C51.9936 51.2904 52.2977 50.5562 52.2977 49.7908C52.2977 41.845 46.5714 34.6266 37.3586 31.3854Z" fill="#06766E"/>
</svg>
