<svg width="192" height="180" viewBox="0 0 192 180" fill="none" xmlns="http://www.w3.org/2000/svg">
<path d="M90.4168 79.3653C88.9034 75.3818 91.9087 71.1344 96.1688 71.2361L133.908 72.1366C138.71 72.2512 141.437 77.6799 138.663 81.6005L114.331 115.989C111.556 119.91 105.53 119.144 103.824 114.655L90.4168 79.3653Z" stroke="#FFD000" stroke-width="8"/>
<path d="M4.84924 66.9233C4.84924 66.9233 25.3144 75.13 35.3285 68.6603C43.6074 63.3116 38.6401 51.3181 47.1635 46.3683C56.1127 41.1712 67.8464 56.6004 73.6127 48.0069C77.5052 42.2059 73.0569 30.127 73.0569 30.127" stroke="#FFD000" stroke-width="8" stroke-linecap="round" stroke-linejoin="round"/>
<rect x="32.0091" y="102.555" width="42" height="7" rx="3.5" transform="rotate(19.8759 32.0091 102.555)" fill="#FFD000"/>
<rect x="40.1371" y="131.545" width="42" height="7" rx="3.5" transform="rotate(-70.1241 40.1371 131.545)" fill="#FFD000"/>
</svg>
